<svg xmlns="http://www.w3.org/2000/svg" viewBox="0 0 212 189" width="212" height="189">
  <path d="M60.75 173.25L88.5 180.75L88.5 171L90.75 168.75H120.75H133.5L135.75 171L135.75 180.75L163.5 173.25L180.75 127.5L172.5 79.5L158.25 85.5L142.5 64.5L120.75 74.25H90.75L69 64.5L53.25 85.5L39 79.5L30.75 127.5L60.75 173.25Z" fill="#763D16" stroke="#763D16" stroke-width="1"/>
  <path d="M105.75 171.75L74.25 162.75L78 148.5L83.25 153H128.25L133.5 148.5L137.25 162.75L105.75 171.75Z" fill="#F5841F" stroke="#F5841F" stroke-width="1"/>
  <path d="M112.5 124.5L84.75 117L96.75 111L112.5 114.75L128.25 111L140.25 117L112.5 124.5Z" fill="#F5841F" stroke="#F5841F" stroke-width="1"/>
  <path d="M69 64.5L90.75 74.25H120.75L142.5 64.5L128.25 32.25L120.75 36.75H90.75L83.25 32.25L69 64.5Z" fill="#F5841F" stroke="#F5841F" stroke-width="1"/>
  <path d="M53.25 85.5L39 79.5L51 97.5V118.5L69 107.25L69 85.5H53.25Z" fill="#F5841F" stroke="#F5841F" stroke-width="1"/>
  <path d="M158.25 85.5H142.5V107.25L160.5 118.5V97.5L158.25 85.5Z" fill="#F5841F" stroke="#F5841F" stroke-width="1"/>
  <path d="M83.25 32.25L90.75 36.75H120.75L128.25 32.25L126.75 16.5L120.75 11.25H90.75L84.75 16.5L83.25 32.25Z" fill="#763D16" stroke="#763D16" stroke-width="1"/>
  <path d="M32.25 7.5L30.75 30L39 20.25L48.75 7.5H32.25Z" fill="#763D16" stroke="#763D16" stroke-width="1"/>
  <path d="M179.25 7.5H162.75L172.5 20.25L180.75 30L179.25 7.5Z" fill="#763D16" stroke="#763D16" stroke-width="1"/>
  <path d="M171.75 135.75L180.75 127.5L163.5 173.25L153.75 162.75L155.25 158.25L149.25 154.5L171.75 135.75Z" fill="#763D16" stroke="#763D16" stroke-width="1"/>
  <path d="M39.75 135.75L18 154.5L11.25 158.25L12.75 162.75L3.75 173.25L30.75 127.5L39.75 135.75Z" fill="#763D16" stroke="#763D16" stroke-width="1"/>
  <path d="M32.25 7.5L49.5 27L46.5 44.25L56.25 33.75L61.5 46.5L39 20.25L32.25 7.5Z" fill="#763D16" stroke="#763D16" stroke-width="1"/>
  <path d="M179.25 7.5L172.5 20.25L150 46.5L155.25 33.75L165 44.25L162 27L179.25 7.5Z" fill="#763D16" stroke="#763D16" stroke-width="1"/>
  <path d="M51 97.5L39 79.5L46.5 44.25L51 97.5Z" fill="#763D16" stroke="#763D16" stroke-width="1"/>
  <path d="M160.5 97.5L165 44.25L172.5 79.5L160.5 97.5Z" fill="#763D16" stroke="#763D16" stroke-width="1"/>
  <path d="M165 44.25L155.25 33.75L165.75 26.25L175.5 39.75L172.5 79.5L165 44.25Z" fill="#763D16" stroke="#763D16" stroke-width="1"/>
  <path d="M46.5 44.25L39 79.5L36 39.75L45.75 26.25L56.25 33.75L46.5 44.25Z" fill="#763D16" stroke="#763D16" stroke-width="1"/>
  <path d="M45.75 26.25L84.75 16.5L83.25 32.25L56.25 33.75L45.75 26.25Z" fill="#763D16" stroke="#763D16" stroke-width="1"/>
  <path d="M165.75 26.25L126.75 16.5L128.25 32.25L155.25 33.75L165.75 26.25Z" fill="#763D16" stroke="#763D16" stroke-width="1"/>
</svg>