<svg width="40" height="40" viewBox="0 0 40 40" fill="none" xmlns="http://www.w3.org/2000/svg">
  <path d="M34.9582 3.55566L22.2324 13.9011L24.6519 8.18016L34.9582 3.55566Z" fill="#E17726" stroke="#E17726" strokeWidth="0.25" strokeLinecap="round" strokeLinejoin="round"/>
  <path d="M5.03516 3.55566L17.6501 14.0069L15.3483 8.18016L5.03516 3.55566Z" fill="#E27625" stroke="#E27625" strokeWidth="0.25" strokeLinecap="round" strokeLinejoin="round"/>
  <path d="M30.2287 27.4731L26.7217 33.0913L34.3346 35.2686L36.4899 27.5789L30.2287 27.4731Z" fill="#E27625" stroke="#E27625" strokeWidth="0.25" strokeLinecap="round" strokeLinejoin="round"/>
  <path d="M3.5293 27.5789L5.67125 35.2686L13.2783 33.0913L9.77128 27.4731L3.5293 27.5789Z" fill="#E27625" stroke="#E27625" strokeWidth="0.25" strokeLinecap="round" strokeLinejoin="round"/>
  <path d="M12.8574 17.8L10.8389 21.0731L18.3578 21.4443L18.1108 13.2731L12.8574 17.8Z" fill="#E27625" stroke="#E27625" strokeWidth="0.25" strokeLinecap="round" strokeLinejoin="round"/>
  <path d="M27.1367 17.8001L21.8129 13.1673L21.6367 21.4444L29.1554 21.0731L27.1367 17.8001Z" fill="#E27625" stroke="#E27625" strokeWidth="0.25" strokeLinecap="round" strokeLinejoin="round"/>
  <path d="M13.2783 33.0913L17.9022 30.7368L13.9022 27.6368L13.2783 33.0913Z" fill="#E27625" stroke="#E27625" strokeWidth="0.25" strokeLinecap="round" strokeLinejoin="round"/>
  <path d="M22.0918 30.7368L26.7215 33.0913L26.0918 27.6368L22.0918 30.7368Z" fill="#E27625" stroke="#E27625" strokeWidth="0.25" strokeLinecap="round" strokeLinejoin="round"/>
  <path d="M26.7215 33.0913L22.0918 30.7368L22.4568 33.8309L22.4215 35.1632L26.7215 33.0913Z" fill="#D5BFB2" stroke="#D5BFB2" strokeWidth="0.25" strokeLinecap="round" strokeLinejoin="round"/>
  <path d="M13.2783 33.0913L17.5842 35.1632L17.5607 33.8309L17.9022 30.7368L13.2783 33.0913Z" fill="#D5BFB2" stroke="#D5BFB2" strokeWidth="0.25" strokeLinecap="round" strokeLinejoin="round"/>
  <path d="M17.6735 25.5026L13.7852 24.3202L16.5264 23.0938L17.6735 25.5026Z" fill="#233447" stroke="#233447" strokeWidth="0.25" strokeLinecap="round" strokeLinejoin="round"/>
  <path d="M22.3203 25.5026L23.4674 23.0938L26.2203 24.3202L22.3203 25.5026Z" fill="#233447" stroke="#233447" strokeWidth="0.25" strokeLinecap="round" strokeLinejoin="round"/>
  <path d="M13.2784 33.0913L13.9257 27.4731L9.77124 27.5789L13.2784 33.0913Z" fill="#CC6228" stroke="#CC6228" strokeWidth="0.25" strokeLinecap="round" strokeLinejoin="round"/>
  <path d="M26.0742 27.4731L26.7214 33.0913L30.2285 27.5789L26.0742 27.4731Z" fill="#CC6228" stroke="#CC6228" strokeWidth="0.25" strokeLinecap="round" strokeLinejoin="round"/>
  <path d="M29.1554 21.0731L21.6367 21.4443L22.3261 25.5026L23.4732 23.0937L26.2261 24.3202L29.1554 21.0731Z" fill="#CC6228" stroke="#CC6228" strokeWidth="0.25" strokeLinecap="round" strokeLinejoin="round"/>
  <path d="M13.7852 24.3202L16.5264 23.0937L17.6735 25.5026L18.3578 21.4443L10.8389 21.0731L13.7852 24.3202Z" fill="#CC6228" stroke="#CC6228" strokeWidth="0.25" strokeLinecap="round" strokeLinejoin="round"/>
  <path d="M10.8389 21.0731L13.9022 27.6367L13.7852 24.3202L10.8389 21.0731Z" fill="#E27525" stroke="#E27525" strokeWidth="0.25" strokeLinecap="round" strokeLinejoin="round"/>
  <path d="M26.2263 24.3202L26.0918 27.6367L29.1557 21.0731L26.2263 24.3202Z" fill="#E27525" stroke="#E27525" strokeWidth="0.25" strokeLinecap="round" strokeLinejoin="round"/>
  <path d="M18.3582 21.4443L17.6738 25.5026L18.5347 30.0379L18.7347 23.6497L18.3582 21.4443Z" fill="#E27525" stroke="#E27525" strokeWidth="0.25" strokeLinecap="round" strokeLinejoin="round"/>
  <path d="M21.6368 21.4443L21.2715 23.6379L21.4363 30.0379L22.3265 25.5026L21.6368 21.4443Z" fill="#E27525" stroke="#E27525" strokeWidth="0.25" strokeLinecap="round" strokeLinejoin="round"/>
  <path d="M22.3263 25.5026L21.4363 30.0379L22.0918 30.7368L26.0918 27.6368L26.2263 24.3203L22.3263 25.5026Z" fill="#F5841F" stroke="#F5841F" strokeWidth="0.25" strokeLinecap="round" strokeLinejoin="round"/>
  <path d="M13.7852 24.3203L13.9021 27.6368L17.9021 30.7368L18.5344 30.0379L17.6733 25.5026L13.7852 24.3203Z" fill="#F5841F" stroke="#F5841F" strokeWidth="0.25" strokeLinecap="round" strokeLinejoin="round"/>
  <path d="M22.4215 35.1633L22.4569 33.8309L22.1215 33.5544H17.8734L17.5616 33.8309L17.5851 35.1633L13.2793 33.0915L14.8793 34.3885L17.8264 36.4445H22.1676L25.1264 34.3885L26.7206 33.0915L22.4215 35.1633Z" fill="#C0AC9D" stroke="#C0AC9D" strokeWidth="0.25" strokeLinecap="round" strokeLinejoin="round"/>
  <path d="M22.0918 30.7368L21.4363 30.0379H18.5344L17.9024 30.7368L17.5608 33.8309L17.8726 33.5544H22.1207L22.4561 33.8309L22.0918 30.7368Z" fill="#161616" stroke="#161616" strokeWidth="0.25" strokeLinecap="round" strokeLinejoin="round"/>
  <path d="M35.4998 14.1944L36.6469 8.69802L34.9587 3.55566L22.0918 13.6356L27.1371 17.8L34.2116 19.9182L35.7175 17.9944L35.0528 17.5174L36.0764 16.5526L35.2705 15.9409L36.2939 15.1232L35.4998 14.1944Z" fill="#763E1A" stroke="#763E1A" strokeWidth="0.25" strokeLinecap="round" strokeLinejoin="round"/>
  <path d="M3.35352 8.69802L4.50058 14.1944L3.68235 15.1232L4.71766 15.9409L3.9 16.5526L4.92353 17.5174L4.25882 17.9944L5.75294 19.9182L12.8294 17.8L17.8747 13.6356L5.00763 3.55566L3.35352 8.69802Z" fill="#763E1A" stroke="#763E1A" strokeWidth="0.25" strokeLinecap="round" strokeLinejoin="round"/>
  <path d="M34.2118 19.9181L27.1372 17.8L29.1559 21.0731L26.0918 27.6367L30.2294 27.579H36.4906L34.2118 19.9181Z" fill="#F5841F" stroke="#F5841F" strokeWidth="0.25" strokeLinecap="round" strokeLinejoin="round"/>
  <path d="M12.8293 17.8L5.75288 19.9181L3.5293 27.579H9.77129L13.902 27.6367L10.8381 21.0731L12.8293 17.8Z" fill="#F5841F" stroke="#F5841F" strokeWidth="0.25" strokeLinecap="round" strokeLinejoin="round"/>
  <path d="M21.6366 21.4443L22.0954 13.6355L24.6543 8.18018H15.3484L17.8719 13.6355L18.3601 21.4443L18.5249 23.6614L18.5366 30.0379H21.4385L21.4621 23.6614L21.6366 21.4443Z" fill="#F5841F" stroke="#F5841F" strokeWidth="0.25" strokeLinecap="round" strokeLinejoin="round"/>
</svg>