<svg xmlns="http://www.w3.org/2000/svg" viewBox="0 0 128 128" width="128px" height="128px">
  <defs>
    <linearGradient id="a" x1="64" y1="7.74" x2="64" y2="120.26" gradientUnits="userSpaceOnUse">
      <stop offset="0" stop-color="#534bb1"/>
      <stop offset="1" stop-color="#551bf9"/>
    </linearGradient>
  </defs>
  <circle cx="64" cy="64" r="56.26" fill="url(#a)"/>
  <path d="M53.27,31.5H82.73a4.91,4.91,0,0,1,4.91,4.91V61.73a6.55,6.55,0,0,1-6.55,6.55H55.27a6.55,6.55,0,0,1-6.55-6.55V36.41A4.91,4.91,0,0,1,53.27,31.5Z" fill="#fff"/>
  <path d="M77.82,77.82H37.41a6,6,0,0,1-6-6V39.68a1.64,1.64,0,0,1,3.27,0V71.82a2.73,2.73,0,0,0,2.73,2.73H77.82a1.64,1.64,0,1,1,0,3.27Z" fill="#fff"/>
</svg>